<svg id="Ebene_1" data-name="Ebene 1" xmlns="http://www.w3.org/2000/svg" viewBox="0 0 50 60.6"><defs><style>.cls-1{fill:#020202;}</style></defs><title>arrow-prev</title><path class="cls-1" d="M31.08,30.31C45.85,14.36,50,0,50,0H42.56C33.3,19.67,23.63,30.31,23.63,30.31S33.3,40.94,42.56,60.6H50S45.23,45.37,31.08,30.31Z"/><path class="cls-1" d="M19.29,30.31C34.06,14.36,39,0,39,0H31.54C22.27,19.67,11.85,30.31,11.85,30.31S22.27,40.94,31.54,60.6H39A98.61,98.61,0,0,0,19.29,30.31Z"/><path class="cls-1" d="M7.45,30.31C22.21,14.36,27.89,0,27.89,0H20.45C11.19,19.67,0,30.31,0,30.31S11.19,40.94,20.45,60.6h7.44A112.23,112.23,0,0,0,7.45,30.31Z"/></svg>