<svg id="Ebene_1" data-name="Ebene 1" xmlns="http://www.w3.org/2000/svg" viewBox="0 0 50 60.6"><defs><style>.cls-1{fill:#020202;}</style></defs><title>arrow-next</title><path class="cls-1" d="M18.92,30.29C4.15,46.25,0,60.6,0,60.6H7.44C16.7,40.94,26.37,30.29,26.37,30.29S16.7,19.67,7.44,0H0S4.77,15.23,18.92,30.29Z"/><path class="cls-1" d="M30.71,30.29C15.94,46.25,11,60.6,11,60.6h7.44c9.27-19.66,19.69-30.31,19.69-30.31S27.73,19.67,18.46,0H11A98.64,98.64,0,0,0,30.71,30.29Z"/><path class="cls-1" d="M42.55,30.29C27.79,46.25,22.11,60.6,22.11,60.6h7.44C38.81,40.94,50,30.29,50,30.29S38.81,19.67,29.55,0H22.11A112.06,112.06,0,0,0,42.55,30.29Z"/></svg>